HIERARCHY
ROOT SpineBase
{
  OFFSET 0.000000 0.000000 0.000000
  CHANNELS 6 Xposition Yposition Zposition Zrotation Xrotation Yrotation
  JOINT SpineMid
  {
    OFFSET -0.000000 28.902503 0.000000
    CHANNELS 3 Zrotation Xrotation Yrotation
    JOINT SpineShoulder
    {
      OFFSET 0.019758 21.566639 -0.829319
      CHANNELS 3 Zrotation Xrotation Yrotation
      JOINT Neck
      {
        OFFSET -0.016806 7.184483 -0.606108
        CHANNELS 3 Zrotation Xrotation Yrotation
        JOINT Head
        {
          OFFSET 0.061877 13.284375 -4.298382
          CHANNELS 3 Zrotation Xrotation Yrotation
          End Site
          {
            OFFSET 0 0 0
          }
        }
      }
      JOINT ShoulderLeft
      {
        OFFSET -16.468173 -2.231291 -0.278156
        CHANNELS 3 Zrotation Xrotation Yrotation
        JOINT ElbowLeft
        {
          OFFSET -3.707650 -23.010664 -0.944705
          CHANNELS 3 Zrotation Xrotation Yrotation
          JOINT WristLeft
          {
            OFFSET 0.173967 -20.663338 -5.722222
            CHANNELS 3 Zrotation Xrotation Yrotation
            JOINT HandLeft
            {
              OFFSET 0.379894 -5.173558 -1.824256
              CHANNELS 3 Zrotation Xrotation Yrotation
              JOINT HandTipLeft
              {
                OFFSET 0.894969 -7.030372 -0.823836
                CHANNELS 3 Zrotation Xrotation Yrotation
                End Site
                {
                  OFFSET 0 0 0
                }
              }
              JOINT ThumbLeft
              {
                OFFSET 3.930649 0.907841 0.487247
                CHANNELS 3 Zrotation Xrotation Yrotation
                End Site
                {
                  OFFSET 0 0 0
                }
              }
            }
          }
        }
      }
      JOINT ShoulderRight
      {
        OFFSET 14.091315 -0.756051 -2.336728
        CHANNELS 3 Zrotation Xrotation Yrotation
        JOINT ElbowRight
        {
          OFFSET -0.698040 -23.324535 -1.902356
          CHANNELS 3 Zrotation Xrotation Yrotation
          JOINT WristRight
          {
            OFFSET 0.011262 -22.475808 -7.280367
            CHANNELS 3 Zrotation Xrotation Yrotation
            JOINT HandRight
            {
              OFFSET 3.493938 -3.978350 1.533518
              CHANNELS 3 Zrotation Xrotation Yrotation
              JOINT HandTipRight
              {
                OFFSET 2.111924 -3.559476 -2.809155
                CHANNELS 3 Zrotation Xrotation Yrotation
                End Site
                {
                  OFFSET 0 0 0
                }
              }
              JOINT ThumbRight
              {
                OFFSET 3.346026 0.157099 -5.768596
                CHANNELS 3 Zrotation Xrotation Yrotation
                End Site
                {
                  OFFSET 0 0 0
                }
              }
            }
          }
        }
      }
    }
  }
  JOINT HipLeft
  {
    OFFSET -7.362899 1.089232 -2.711964
    CHANNELS 3 Zrotation Xrotation Yrotation
    JOINT KneeLeft
    {
      OFFSET -1.542491 -27.001522 1.305436
      CHANNELS 3 Zrotation Xrotation Yrotation
      JOINT AnkleLeft
      {
        OFFSET 0.896082 -35.434662 10.765327
        CHANNELS 3 Zrotation Xrotation Yrotation
        JOINT FootLeft
        {
          OFFSET -0.350602 -5.051071 -8.410664
          CHANNELS 3 Zrotation Xrotation Yrotation
          End Site
          {
            OFFSET 0 0 0
          }
        }
      }
    }
  }
  JOINT HipRight
  {
    OFFSET 7.259361 1.315622 -3.791940
    CHANNELS 3 Zrotation Xrotation Yrotation
    JOINT KneeRight
    {
      OFFSET 1.562125 -26.812868 1.619425
      CHANNELS 3 Zrotation Xrotation Yrotation
      JOINT AnkleRight
      {
        OFFSET -1.145076 -34.506868 9.397878
        CHANNELS 3 Zrotation Xrotation Yrotation
        JOINT FootRight
        {
          OFFSET -0.884156 -3.122402 -12.291338
          CHANNELS 3 Zrotation Xrotation Yrotation
          End Site
          {
            OFFSET 0 0 0
          }
        }
      }
    }
  }
}
MOTION
Frames: 5
Frame Time: 0.033333
5.628234 74.177750 316.184736 0.000000 0.000000 4.224104 -0.000000 0.000000 -4.224104 -0.000000 0.000000 0.000000 -0.000000 0.000000 0.000000 0.000000 0.000000 0.000000 -0.000000 0.000000 0.000000 -0.000000 0.000000 0.000000 -0.000000 0.000000 0.000000 -0.000000 0.000000 0.000000 0.000000 0.000000 0.000000 0.000000 0.000000 0.000000 -0.000000 0.000000 0.000000 -0.000000 0.000000 0.000000 -0.000000 0.000000 0.000000 -0.000000 0.000000 0.000000 0.000000 0.000000 0.000000 0.000000 0.000000 0.000000 -0.000000 0.000000 -4.224104 -0.000000 0.000000 0.000000 -0.000000 0.000000 0.000000 0.000000 0.000000 0.000000 -0.000000 0.000000 -4.224104 -0.000000 0.000000 0.000000 -0.000000 0.000000 0.000000 0.000000 0.000000 0.000000
5.636851 74.189073 316.187519 -0.020337 -0.076143 4.199367 0.025858 0.074449 -4.199397 -0.000000 0.000000 0.000000 -0.000000 0.000000 0.000000 0.000000 0.000000 0.000000 -0.000000 0.000000 0.000000 -0.000000 0.000000 0.000000 -0.000000 0.000000 0.000000 0.120591 1.451215 0.168818 0.000000 0.000000 0.000000 0.000000 0.000000 0.000000 -0.000000 0.000000 0.000000 -0.000000 0.000000 0.000000 -1.294296 0.099158 -0.414977 1.753106 4.829102 2.837954 0.000000 0.000000 0.000000 0.000000 0.000000 0.000000 0.025858 0.074449 -4.199397 -0.000000 0.000000 0.000000 0.681431 -4.299317 -0.864943 0.000000 0.000000 0.000000 0.025858 0.074449 -4.199397 -0.000000 0.000000 0.000000 -0.000000 0.000000 0.000000 0.000000 0.000000 0.000000
5.649779 74.200250 316.180450 -0.031457 -0.141363 4.169666 0.041652 0.138702 -4.169756 -0.000000 0.000000 0.000000 -0.000000 0.000000 0.000000 0.000000 0.000000 0.000000 -0.000000 0.000000 0.000000 -0.000000 0.000000 0.000000 -0.000000 0.000000 0.000000 0.187992 2.724010 0.319376 0.000000 0.000000 0.000000 0.000000 0.000000 0.000000 -0.000000 0.000000 0.000000 -0.000000 0.000000 0.000000 -2.279101 0.012074 -0.883235 2.690881 8.373556 5.126811 0.000000 0.000000 0.000000 0.000000 0.000000 0.000000 0.041652 0.138702 -4.169756 -0.000000 0.000000 0.000000 1.144628 -6.956221 -1.506429 0.000000 0.000000 0.000000 0.041652 0.138702 -4.169756 -0.000000 0.000000 0.000000 -0.000000 0.000000 0.000000 0.000000 0.000000 0.000000
5.667018 74.211280 316.163532 -0.033366 -0.195671 4.135028 0.047389 0.192755 -4.135165 -0.000000 0.000000 0.000000 -0.000000 0.000000 0.000000 0.000000 0.000000 0.000000 -0.000000 0.000000 0.000000 -0.000000 0.000000 0.000000 0.905498 0.354485 -0.295572 -0.720311 3.458133 0.745331 0.000000 0.000000 0.000000 0.000000 0.000000 0.000000 -0.000000 0.000000 0.000000 -0.000000 0.000000 0.000000 -2.927560 -0.265044 -1.398331 2.931746 10.700591 6.930173 0.000000 0.000000 0.000000 0.000000 0.000000 0.000000 0.047389 0.192755 -4.135165 -0.000000 0.000000 0.000000 1.409379 -7.820429 -1.927797 0.000000 0.000000 0.000000 0.047389 0.192755 -4.135165 -0.000000 0.000000 0.000000 -0.000000 0.000000 0.000000 0.000000 0.000000 0.000000
5.688567 74.222164 316.136762 -0.026071 -0.239072 4.095480 0.043079 0.236599 -4.095623 -0.000000 0.000000 0.000000 -0.174609 0.949155 -0.059632 0.000000 0.000000 0.000000 -0.000000 0.000000 0.000000 -0.000000 0.000000 0.000000 1.441041 0.408965 -0.482212 -1.311409 4.306528 1.047258 0.000000 0.000000 0.000000 0.000000 0.000000 0.000000 -0.000000 0.000000 0.000000 -0.000000 0.000000 0.000000 -3.229696 -0.727922 -1.948372 2.557920 11.839129 8.270116 0.000000 0.000000 0.000000 0.000000 0.000000 0.000000 0.043079 0.236599 -4.095623 -0.000000 0.000000 0.000000 1.491991 -6.877935 -2.131874 0.000000 0.000000 0.000000 0.043079 0.236599 -4.095623 -0.000000 0.000000 0.000000 -0.000000 0.000000 0.000000 0.000000 0.000000 0.000000
